<mxfile host="app.diagrams.net" modified="2022-02-07T16:48:36.497Z" agent="5.0 (X11)" etag="MyWQb5oIXxpEsbvMdD8r" version="16.4.3" type="github">
  <diagram id="QRWkKfWoSAaqpL6tP-VP" name="Page-1">
    <mxGraphModel dx="2272" dy="793" grid="1" gridSize="10" guides="1" tooltips="1" connect="1" arrows="1" fold="1" page="1" pageScale="1" pageWidth="850" pageHeight="1100" math="0" shadow="0">
      <root>
        <mxCell id="0" />
        <mxCell id="1" parent="0" />
        <mxCell id="rA3JXcy08IPIIDM2obJE-3" value="" style="endArrow=none;html=1;rounded=0;fontSize=20;strokeWidth=4;fillColor=#dae8fc;strokeColor=#6c8ebf;" edge="1" parent="1">
          <mxGeometry width="50" height="50" relative="1" as="geometry">
            <mxPoint x="440" y="640" as="sourcePoint" />
            <mxPoint x="440" y="80" as="targetPoint" />
          </mxGeometry>
        </mxCell>
        <mxCell id="rA3JXcy08IPIIDM2obJE-7" style="edgeStyle=orthogonalEdgeStyle;rounded=0;orthogonalLoop=1;jettySize=auto;html=1;exitX=1;exitY=0.5;exitDx=0;exitDy=0;fontSize=20;strokeWidth=2;fillColor=#fff2cc;strokeColor=#d6b656;" edge="1" parent="1" source="rA3JXcy08IPIIDM2obJE-1" target="rA3JXcy08IPIIDM2obJE-5">
          <mxGeometry relative="1" as="geometry" />
        </mxCell>
        <mxCell id="rA3JXcy08IPIIDM2obJE-1" value="" style="whiteSpace=wrap;html=1;aspect=fixed;" vertex="1" parent="1">
          <mxGeometry x="240" y="200" width="120" height="120" as="geometry" />
        </mxCell>
        <mxCell id="rA3JXcy08IPIIDM2obJE-2" value="SERVER" style="text;strokeColor=none;fillColor=none;align=center;verticalAlign=middle;spacingLeft=4;spacingRight=4;overflow=hidden;points=[[0,0.5],[1,0.5]];portConstraint=eastwest;rotatable=0;fontSize=20;" vertex="1" parent="1">
          <mxGeometry x="210" y="170" width="180" height="30" as="geometry" />
        </mxCell>
        <mxCell id="rA3JXcy08IPIIDM2obJE-14" style="edgeStyle=orthogonalEdgeStyle;rounded=0;orthogonalLoop=1;jettySize=auto;html=1;exitX=0.5;exitY=1;exitDx=0;exitDy=0;entryX=1;entryY=0.25;entryDx=0;entryDy=0;fontSize=20;strokeWidth=2;fillColor=#d5e8d4;strokeColor=#82b366;" edge="1" parent="1" source="rA3JXcy08IPIIDM2obJE-5" target="rA3JXcy08IPIIDM2obJE-11">
          <mxGeometry relative="1" as="geometry" />
        </mxCell>
        <mxCell id="rA3JXcy08IPIIDM2obJE-5" value="" style="whiteSpace=wrap;html=1;aspect=fixed;" vertex="1" parent="1">
          <mxGeometry x="600" y="200" width="120" height="120" as="geometry" />
        </mxCell>
        <mxCell id="rA3JXcy08IPIIDM2obJE-8" value="LOG IN" style="text;strokeColor=none;fillColor=none;align=center;verticalAlign=middle;spacingLeft=4;spacingRight=4;overflow=hidden;points=[[0,0.5],[1,0.5]];portConstraint=eastwest;rotatable=0;fontSize=20;" vertex="1" parent="1">
          <mxGeometry x="570" y="170" width="180" height="30" as="geometry" />
        </mxCell>
        <mxCell id="rA3JXcy08IPIIDM2obJE-9" value="1" style="text;strokeColor=none;fillColor=none;align=center;verticalAlign=middle;spacingLeft=4;spacingRight=4;overflow=hidden;points=[[0,0.5],[1,0.5]];portConstraint=eastwest;rotatable=0;fontSize=20;" vertex="1" parent="1">
          <mxGeometry x="-30" y="170" width="180" height="30" as="geometry" />
        </mxCell>
        <mxCell id="rA3JXcy08IPIIDM2obJE-30" style="edgeStyle=orthogonalEdgeStyle;rounded=0;orthogonalLoop=1;jettySize=auto;html=1;exitX=1;exitY=0.75;exitDx=0;exitDy=0;entryX=0;entryY=0.25;entryDx=0;entryDy=0;fontSize=20;fontColor=#66FF66;strokeWidth=2;fillColor=#fff2cc;strokeColor=#d6b656;" edge="1" parent="1" source="rA3JXcy08IPIIDM2obJE-11" target="rA3JXcy08IPIIDM2obJE-28">
          <mxGeometry relative="1" as="geometry" />
        </mxCell>
        <mxCell id="rA3JXcy08IPIIDM2obJE-11" value="" style="whiteSpace=wrap;html=1;aspect=fixed;" vertex="1" parent="1">
          <mxGeometry x="240" y="400" width="120" height="120" as="geometry" />
        </mxCell>
        <mxCell id="rA3JXcy08IPIIDM2obJE-12" value="SERVER" style="text;strokeColor=none;fillColor=none;align=center;verticalAlign=middle;spacingLeft=4;spacingRight=4;overflow=hidden;points=[[0,0.5],[1,0.5]];portConstraint=eastwest;rotatable=0;fontSize=20;" vertex="1" parent="1">
          <mxGeometry x="210" y="370" width="180" height="30" as="geometry" />
        </mxCell>
        <mxCell id="rA3JXcy08IPIIDM2obJE-15" value="{user:pwd}" style="text;strokeColor=none;fillColor=none;align=center;verticalAlign=middle;spacingLeft=4;spacingRight=4;overflow=hidden;points=[[0,0.5],[1,0.5]];portConstraint=eastwest;rotatable=0;fontSize=20;" vertex="1" parent="1">
          <mxGeometry x="440" y="400" width="180" height="30" as="geometry" />
        </mxCell>
        <mxCell id="rA3JXcy08IPIIDM2obJE-25" style="edgeStyle=orthogonalEdgeStyle;rounded=0;orthogonalLoop=1;jettySize=auto;html=1;exitX=0;exitY=0.25;exitDx=0;exitDy=0;entryX=1;entryY=0.25;entryDx=0;entryDy=0;fontSize=20;fontColor=#66FF66;strokeWidth=2;fillColor=#f8cecc;strokeColor=#b85450;" edge="1" parent="1" source="rA3JXcy08IPIIDM2obJE-16" target="rA3JXcy08IPIIDM2obJE-23">
          <mxGeometry relative="1" as="geometry" />
        </mxCell>
        <mxCell id="rA3JXcy08IPIIDM2obJE-16" value="" style="whiteSpace=wrap;html=1;aspect=fixed;" vertex="1" parent="1">
          <mxGeometry x="240" y="600" width="120" height="120" as="geometry" />
        </mxCell>
        <mxCell id="rA3JXcy08IPIIDM2obJE-17" value="API" style="text;strokeColor=none;fillColor=none;align=center;verticalAlign=middle;spacingLeft=4;spacingRight=4;overflow=hidden;points=[[0,0.5],[1,0.5]];portConstraint=eastwest;rotatable=0;fontSize=20;" vertex="1" parent="1">
          <mxGeometry x="210" y="570" width="180" height="30" as="geometry" />
        </mxCell>
        <mxCell id="rA3JXcy08IPIIDM2obJE-19" value="" style="endArrow=classic;html=1;rounded=0;fontSize=20;strokeWidth=2;exitX=0.25;exitY=1;exitDx=0;exitDy=0;entryX=0.25;entryY=0;entryDx=0;entryDy=0;fillColor=#fff2cc;strokeColor=#d6b656;" edge="1" parent="1" source="rA3JXcy08IPIIDM2obJE-11" target="rA3JXcy08IPIIDM2obJE-16">
          <mxGeometry width="50" height="50" relative="1" as="geometry">
            <mxPoint x="490" y="490" as="sourcePoint" />
            <mxPoint x="540" y="440" as="targetPoint" />
          </mxGeometry>
        </mxCell>
        <mxCell id="rA3JXcy08IPIIDM2obJE-20" value="2" style="text;strokeColor=none;fillColor=none;align=center;verticalAlign=middle;spacingLeft=4;spacingRight=4;overflow=hidden;points=[[0,0.5],[1,0.5]];portConstraint=eastwest;rotatable=0;fontSize=20;" vertex="1" parent="1">
          <mxGeometry x="-30" y="370" width="180" height="30" as="geometry" />
        </mxCell>
        <mxCell id="rA3JXcy08IPIIDM2obJE-22" value="" style="endArrow=classic;html=1;rounded=0;fontSize=20;strokeWidth=2;exitX=0.75;exitY=0;exitDx=0;exitDy=0;entryX=0.75;entryY=1;entryDx=0;entryDy=0;fillColor=#f8cecc;strokeColor=#b85450;" edge="1" parent="1" source="rA3JXcy08IPIIDM2obJE-16" target="rA3JXcy08IPIIDM2obJE-11">
          <mxGeometry width="50" height="50" relative="1" as="geometry">
            <mxPoint x="490" y="490" as="sourcePoint" />
            <mxPoint x="540" y="440" as="targetPoint" />
          </mxGeometry>
        </mxCell>
        <mxCell id="rA3JXcy08IPIIDM2obJE-26" style="edgeStyle=orthogonalEdgeStyle;rounded=0;orthogonalLoop=1;jettySize=auto;html=1;exitX=1;exitY=0.75;exitDx=0;exitDy=0;entryX=0;entryY=0.75;entryDx=0;entryDy=0;fontSize=20;fontColor=#66FF66;strokeWidth=2;fillColor=#e1d5e7;strokeColor=#9673a6;" edge="1" parent="1" source="rA3JXcy08IPIIDM2obJE-23" target="rA3JXcy08IPIIDM2obJE-16">
          <mxGeometry relative="1" as="geometry" />
        </mxCell>
        <mxCell id="rA3JXcy08IPIIDM2obJE-23" value="" style="whiteSpace=wrap;html=1;aspect=fixed;" vertex="1" parent="1">
          <mxGeometry y="600" width="120" height="120" as="geometry" />
        </mxCell>
        <mxCell id="rA3JXcy08IPIIDM2obJE-24" value="DB" style="text;strokeColor=none;fillColor=none;align=center;verticalAlign=middle;spacingLeft=4;spacingRight=4;overflow=hidden;points=[[0,0.5],[1,0.5]];portConstraint=eastwest;rotatable=0;fontSize=20;" vertex="1" parent="1">
          <mxGeometry x="-30" y="570" width="180" height="30" as="geometry" />
        </mxCell>
        <mxCell id="rA3JXcy08IPIIDM2obJE-27" value="update token" style="text;strokeColor=none;fillColor=none;align=center;verticalAlign=middle;spacingLeft=4;spacingRight=4;overflow=hidden;points=[[0,0.5],[1,0.5]];portConstraint=eastwest;rotatable=0;fontSize=20;" vertex="1" parent="1">
          <mxGeometry x="90" y="645" width="180" height="30" as="geometry" />
        </mxCell>
        <mxCell id="rA3JXcy08IPIIDM2obJE-28" value="" style="whiteSpace=wrap;html=1;aspect=fixed;" vertex="1" parent="1">
          <mxGeometry x="600" y="470" width="120" height="120" as="geometry" />
        </mxCell>
        <mxCell id="rA3JXcy08IPIIDM2obJE-29" value="CONTENT" style="text;strokeColor=none;fillColor=none;align=center;verticalAlign=middle;spacingLeft=4;spacingRight=4;overflow=hidden;points=[[0,0.5],[1,0.5]];portConstraint=eastwest;rotatable=0;fontSize=20;" vertex="1" parent="1">
          <mxGeometry x="570" y="440" width="180" height="30" as="geometry" />
        </mxCell>
        <mxCell id="rA3JXcy08IPIIDM2obJE-31" value="cookie(token)" style="text;strokeColor=none;fillColor=none;align=center;verticalAlign=middle;spacingLeft=4;spacingRight=4;overflow=hidden;points=[[0,0.5],[1,0.5]];portConstraint=eastwest;rotatable=0;fontSize=20;" vertex="1" parent="1">
          <mxGeometry x="425" y="460" width="180" height="30" as="geometry" />
        </mxCell>
      </root>
    </mxGraphModel>
  </diagram>
</mxfile>
